<svg width="32" height="34" viewBox="0 0 32 34" fill="none" xmlns="http://www.w3.org/2000/svg">
<path d="M23.8415 13.0025C23.8415 13.1839 23.8415 13.3653 23.8415 13.5208C23.8415 18.886 19.8915 25.0806 12.6915 25.0806C10.4665 25.0806 8.41647 24.4067 6.66647 23.2663C6.96647 23.2922 7.29147 23.3181 7.59147 23.3181C9.41647 23.3181 11.1165 22.6702 12.4665 21.5816C10.7415 21.5556 9.29147 20.3634 8.81647 18.7564C9.06647 18.8083 9.29147 18.8342 9.56647 18.8342C9.91647 18.8342 10.2665 18.7823 10.5915 18.6787C8.79147 18.3158 7.44147 16.6829 7.44147 14.7131C7.44147 14.6872 7.44147 14.6872 7.44147 14.6613C7.96647 14.9723 8.56647 15.1537 9.21647 15.1796C8.16647 14.4539 7.46647 13.2098 7.46647 11.7843C7.46647 11.0326 7.66647 10.3328 7.99147 9.73669C9.91647 12.199 12.8165 13.8059 16.0665 13.9874C15.9915 13.7023 15.9665 13.3653 15.9665 13.0543C15.9665 10.7994 17.7165 8.98505 19.8915 8.98505C21.0165 8.98505 22.0415 9.4775 22.7415 10.2551C23.6415 10.0736 24.4665 9.73669 25.2415 9.27015C24.9415 10.2291 24.3165 11.0067 23.5165 11.5251C24.3165 11.4214 25.0665 11.2141 25.7665 10.8771C25.2665 11.7065 24.6165 12.4322 23.8415 13.0025Z" fill="#121212" fill-opacity="0.6"/>
</svg>
