<svg width="27" height="33" viewBox="0 0 27 33" fill="none" xmlns="http://www.w3.org/2000/svg">
<path d="M22.6957 17.8878C22.7276 15.4093 24.0587 13.064 26.1704 11.7658C24.8382 9.86323 22.6069 8.65697 20.2855 8.58434C17.8095 8.32445 15.4092 10.0659 14.1475 10.0659C12.8613 10.0659 10.9187 8.61014 8.82687 8.65318C6.10021 8.74127 3.55828 10.2915 2.2317 12.6753C-0.619915 17.6125 1.50713 24.8684 4.23874 28.8592C5.60543 30.8134 7.20269 32.9962 9.29267 32.9188C11.3378 32.834 12.1017 31.6147 14.5704 31.6147C17.0162 31.6147 17.7328 32.9188 19.8652 32.8696C22.0597 32.834 23.4424 30.9067 24.7612 28.9341C25.7431 27.5416 26.4987 26.0027 27 24.3743C24.421 23.2835 22.6987 20.688 22.6957 17.8878Z" fill="#B2B2B2"/>
<path d="M18.6679 5.95979C19.8645 4.52335 20.454 2.67706 20.3113 0.812988C18.4832 1.00499 16.7945 1.8787 15.5818 3.26003C14.3959 4.60965 13.7788 6.42346 13.8954 8.21628C15.7242 8.23511 17.522 7.38509 18.6679 5.95979Z" fill="#B2B2B2"/>
</svg>
