<svg width="27" height="30" viewBox="0 0 27 30" fill="none" xmlns="http://www.w3.org/2000/svg">
<path d="M0.588846 29.4057L14.4883 14.9893L0.600491 0.598633C0.22955 0.822679 0 1.34143 0 2.02047V27.9977C0.0049749 28.6767 0.226223 29.1575 0.588846 29.4057Z" fill="#B2B2B2"/>
<path d="M14.986 14.5917L19.1262 10.2969L2.26592 0.707767C1.98201 0.53667 1.65953 0.446296 1.33109 0.445801L14.9844 14.59L14.986 14.5917Z" fill="#B2B2B2"/>
<path d="M14.9866 15.3901L1.29004 29.5963C1.63381 29.6023 1.97242 29.5092 2.26812 29.3275L19.1617 19.7125L14.9866 15.3901Z" fill="#B2B2B2"/>
<path d="M25.2344 13.7766L19.6237 10.5796L15.3704 14.9916L19.6553 19.4311L25.2327 16.2428C26.4187 15.5655 26.4187 14.4504 25.2344 13.7766Z" fill="#B2B2B2"/>
</svg>
