<?xml version="1.0" encoding="utf-8"?>
<!-- Generator: Adobe Illustrator 25.0.0, SVG Export Plug-In . SVG Version: 6.00 Build 0)  -->
<svg version="1.1" id="Слой_1" xmlns="http://www.w3.org/2000/svg" xmlns:xlink="http://www.w3.org/1999/xlink" x="0px" y="0px"
	 viewBox="0 0 556 403" style="enable-background:new 0 0 556 403;" xml:space="preserve">
<style type="text/css">
	.st0{opacity:0.6;fill:#587EEC;enable-background:new    ;}
	.st1{fill:none;stroke:#9AB1F3;stroke-width:2;stroke-miterlimit:10;}
	.st2{fill:#587EEC;}
	.st3{opacity:0.25;enable-background:new    ;}
	.st4{fill:url(#SVGID_1_);}
	.st5{fill:#E8F5FF;}
	.st6{fill:#FFB0B1;}
	.st7{opacity:0.1;enable-background:new    ;}
	.st8{fill:#575A89;}
	.st9{fill:#DCE6F2;}
	.st10{fill:#353146;}
	.st11{opacity:0.1;}
	.st12{fill:#EB5569;}
	.st13{fill:#FF748E;}
</style>
<g>
	<path class="st0" d="M322.3,69.5c-35.1-1.2-68.5-12.5-100.4-24.9c-31.9-12.4-63.5-26.1-97.7-32.7c-22-4.2-47.2-4.8-64.9,7
		c-17.1,11.4-22.6,31-25.6,49.2c-2.2,13.7-3.5,28.1,2.6,40.9c4.2,8.9,11.8,16.4,17,24.9c18.1,29.7,5.3,66.3-14.3,95.2
		c-9.2,13.6-19.9,26.6-27,41c-7.1,14.5-10.4,31-4.2,45.8c6.2,14.6,20.9,25.6,36.8,33.3c32.3,15.7,70.5,20.2,107.6,22.7
		c82.3,5.6,165,3.2,247.4,0.8c30.5-0.9,61.2-1.8,91.2-6.6c16.7-2.6,33.9-6.8,46-16.8c15.4-12.8,19.2-34.4,8.9-50.4
		c-17.3-26.8-65-33.5-77.1-62.3c-6.6-15.8,0.2-33.5,9.8-48.2c20.7-31.5,55.4-59.2,57.3-95.2c1.3-24.8-15.4-49.5-41.3-61.3
		c-27.1-12.3-64.6-10.7-84.5,9.6C389.3,62.6,353.2,70.6,322.3,69.5z"/>
	<path class="st1" d="M126.4,365.4c0,0-27.7-21-32.9-47.6c-2.1-11.2-7.8-21.4-16.2-29.1c-4-3.6-8.4-6.9-13-9.7"/>
	<path class="st2" d="M60.9,262.2c2.4,3.3,3.5,17.2,3.5,17.2s-13-5.1-15.4-8.4c-1.2-1.6-1.7-3.6-1.4-5.5c0.3-1.9,1.3-3.7,2.9-4.9
		s3.6-1.7,5.5-1.4C58,259.6,59.7,260.6,60.9,262.2z"/>
	<path class="st2" d="M84.2,273.1c0.3,4.1-6.4,16.4-6.4,16.4s-8.1-11.4-8.4-15.4c-0.1-1.9,0.6-3.8,1.9-5.3c1.3-1.5,3.1-2.3,5.1-2.5
		c1.9-0.1,3.9,0.5,5.3,1.8C83.1,269.4,84,271.2,84.2,273.1L84.2,273.1z"/>
	<path class="st2" d="M106.8,304.5c-1.8,3.6-13.8,10.9-13.8,10.9s-1.3-13.9,0.6-17.6c0.9-1.7,2.4-3,4.3-3.6c1.8-0.6,3.8-0.4,5.6,0.4
		c1.7,0.9,3.1,2.4,3.7,4.2C107.7,300.8,107.6,302.8,106.8,304.5z"/>
	<path class="st2" d="M118.5,332.1c-1.2,3.9-11.7,13.1-11.7,13.1s-3.6-13.5-2.4-17.4c0.6-1.9,1.9-3.4,3.6-4.4
		c1.7-0.9,3.8-1.1,5.6-0.5s3.4,1.9,4.4,3.6C118.9,328.2,119.1,330.3,118.5,332.1z"/>
	<path class="st2" d="M65.8,299.4c4,0.5,16.8-5.2,16.8-5.2s-10.7-8.9-14.8-9.5c-1.9-0.3-3.9,0.3-5.5,1.5c-1.6,1.2-2.6,3-2.8,4.9
		c-0.3,1.9,0.3,3.9,1.4,5.5C62.1,298.1,63.9,299.1,65.8,299.4z"/>
	<path class="st2" d="M79.9,331.5c4-0.7,14.4-10,14.4-10s-12.9-5.3-16.9-4.6c-1,0.2-1.9,0.5-2.7,1c-0.8,0.5-1.5,1.2-2.1,2
		c-0.6,0.8-1,1.7-1.2,2.6c-0.2,1-0.2,1.9-0.1,2.9c0.2,1,0.5,1.9,1,2.7c0.5,0.8,1.2,1.5,2,2.1c0.8,0.6,1.7,1,2.7,1.2
		C78,331.6,79,331.7,79.9,331.5L79.9,331.5z"/>
	<path class="st2" d="M97.9,360.8c4.1,0,15.9-7.4,15.9-7.4S102,346,97.9,346c-2,0-3.8,0.8-5.2,2.2c-1.4,1.4-2.2,3.3-2.2,5.2
		s0.8,3.8,2.2,5.2C94.1,360,96,360.8,97.9,360.8L97.9,360.8z"/>
	<path class="st1" d="M395.5,184.1c0,0,17.1-30.3,42.8-39c10.8-3.6,20.2-10.6,26.7-20c3-4.5,5.7-9.2,7.9-14.2"/>
	<path class="st2" d="M489,105.5c-2.9,2.8-16.6,5.8-16.6,5.8s3.3-13.6,6.3-16.4c1.4-1.3,3.3-2,5.2-2c1.9,0,3.8,0.9,5.1,2.2
		c1.4,1.4,2.1,3.3,2.1,5.2C491.1,102.3,490.4,104.1,489,105.5z"/>
	<path class="st2" d="M481.3,130c-4,0.8-17.1-4.2-17.1-4.2s10.2-9.6,14.2-10.4c1-0.2,2-0.2,2.9-0.1c1,0.2,1.9,0.5,2.7,1.1
		c0.8,0.5,1.5,1.2,2.1,2.1c0.6,0.8,0.9,1.7,1.1,2.7c0.2,1,0.2,2,0,2.9c-0.2,1-0.6,1.9-1.1,2.7c-0.6,0.8-1.3,1.5-2.1,2
		C483.2,129.5,482.2,129.8,481.3,130z"/>
	<path class="st2" d="M453.2,156.5c-3.9-1.3-12.6-12.2-12.6-12.2s13.6-3.1,17.5-1.8c0.9,0.3,1.8,0.8,2.5,1.4
		c0.7,0.6,1.3,1.4,1.8,2.3c0.4,0.9,0.7,1.8,0.7,2.8c0.1,1-0.1,2-0.4,2.9c-0.3,0.9-0.8,1.8-1.5,2.5c-0.7,0.7-1.4,1.3-2.3,1.7
		c-0.9,0.4-1.8,0.7-2.8,0.7C455.1,157,454.1,156.9,453.2,156.5z"/>
	<path class="st2" d="M427.4,171.8c-4-0.7-14.5-9.9-14.5-9.9s12.9-5.4,16.9-4.7c1.9,0.3,3.7,1.4,4.8,3c1.1,1.6,1.6,3.6,1.3,5.5
		c-0.3,1.9-1.4,3.7-3,4.8C431.3,171.7,429.4,172.2,427.4,171.8L427.4,171.8z"/>
	<path class="st2" d="M452.8,115.2c0,4.1,7.4,15.9,7.4,15.9s7.4-11.8,7.4-15.9c0-1-0.1-2-0.5-2.9c-0.4-0.9-0.9-1.8-1.6-2.5
		c-0.7-0.7-1.5-1.3-2.4-1.7c-0.9-0.4-1.9-0.6-2.9-0.6s-2,0.2-2.9,0.6c-0.9,0.4-1.7,0.9-2.4,1.7c-0.7,0.7-1.2,1.5-1.6,2.5
		C453,113.3,452.8,114.3,452.8,115.2L452.8,115.2z"/>
	<path class="st2" d="M422.9,133.5c1.2,3.9,11.8,13,11.8,13s3.5-13.5,2.3-17.4c-0.6-1.8-2-3.3-3.7-4.2c-1.7-0.9-3.7-1-5.5-0.4
		c-1.8,0.6-3.4,1.8-4.3,3.5C422.6,129.7,422.4,131.7,422.9,133.5L422.9,133.5z"/>
	<path class="st2" d="M396.3,155.3c0.5,4,9.4,14.8,9.4,14.8s5.7-12.7,5.2-16.8c-0.1-1-0.4-1.9-0.9-2.8c-0.5-0.9-1.1-1.6-1.9-2.2
		c-0.8-0.6-1.7-1.1-2.6-1.3c-1-0.3-1.9-0.3-2.9-0.2c-1,0.1-1.9,0.5-2.8,1c-0.8,0.5-1.6,1.2-2.2,2c-0.6,0.8-1,1.7-1.2,2.7
		C396.2,153.3,396.1,154.3,396.3,155.3z"/>
	<path class="st3" d="M489,105.5c-2.9,2.8-16.6,5.8-16.6,5.8s3.3-13.6,6.3-16.4c1.4-1.3,3.3-2,5.2-2c1.9,0,3.8,0.9,5.1,2.2
		c1.4,1.4,2.1,3.3,2.1,5.2C491.1,102.3,490.4,104.1,489,105.5z"/>
	<path class="st3" d="M481.3,130c-4,0.8-17.1-4.2-17.1-4.2s10.2-9.6,14.2-10.4c1-0.2,2-0.2,2.9-0.1c1,0.2,1.9,0.5,2.7,1.1
		c0.8,0.5,1.5,1.2,2.1,2.1c0.6,0.8,0.9,1.7,1.1,2.7c0.2,1,0.2,2,0,2.9c-0.2,1-0.6,1.9-1.1,2.7c-0.6,0.8-1.3,1.5-2.1,2
		C483.2,129.5,482.2,129.8,481.3,130z"/>
	<path class="st3" d="M453.2,156.5c-3.9-1.3-12.6-12.2-12.6-12.2s13.6-3.1,17.5-1.8c0.9,0.3,1.8,0.8,2.5,1.4
		c0.7,0.6,1.3,1.4,1.8,2.3c0.4,0.9,0.7,1.8,0.7,2.8c0.1,1-0.1,2-0.4,2.9c-0.3,0.9-0.8,1.8-1.5,2.5c-0.7,0.7-1.4,1.3-2.3,1.7
		c-0.9,0.4-1.8,0.7-2.8,0.7C455.1,157,454.1,156.9,453.2,156.5z"/>
	<path class="st3" d="M427.4,171.8c-4-0.7-14.5-9.9-14.5-9.9s12.9-5.4,16.9-4.7c1.9,0.3,3.7,1.4,4.8,3c1.1,1.6,1.6,3.6,1.3,5.5
		c-0.3,1.9-1.4,3.7-3,4.8C431.3,171.7,429.4,172.2,427.4,171.8L427.4,171.8z"/>
	<path class="st3" d="M452.8,115.2c0,4.1,7.4,15.9,7.4,15.9s7.4-11.8,7.4-15.9c0-1-0.1-2-0.5-2.9c-0.4-0.9-0.9-1.8-1.6-2.5
		c-0.7-0.7-1.5-1.3-2.4-1.7c-0.9-0.4-1.9-0.6-2.9-0.6s-2,0.2-2.9,0.6c-0.9,0.4-1.7,0.9-2.4,1.7c-0.7,0.7-1.2,1.5-1.6,2.5
		C453,113.3,452.8,114.3,452.8,115.2L452.8,115.2z"/>
	<path class="st3" d="M422.9,133.5c1.2,3.9,11.8,13,11.8,13s3.5-13.5,2.3-17.4c-0.6-1.8-2-3.3-3.7-4.2c-1.7-0.9-3.7-1-5.5-0.4
		c-1.8,0.6-3.4,1.8-4.3,3.5C422.6,129.7,422.4,131.7,422.9,133.5L422.9,133.5z"/>
	<path class="st3" d="M396.3,155.3c0.5,4,9.4,14.8,9.4,14.8s5.7-12.7,5.2-16.8c-0.1-1-0.4-1.9-0.9-2.8c-0.5-0.9-1.1-1.6-1.9-2.2
		c-0.8-0.6-1.7-1.1-2.6-1.3c-1-0.3-1.9-0.3-2.9-0.2c-1,0.1-1.9,0.5-2.8,1c-0.8,0.5-1.6,1.2-2.2,2c-0.6,0.8-1,1.7-1.2,2.7
		C396.2,153.3,396.1,154.3,396.3,155.3z"/>
	<path class="st1" d="M396.5,183.5c0,0,3.4-34.6,23.3-53c8.4-7.7,14.1-17.9,16.3-29c1-5.3,1.5-10.7,1.5-16.1"/>
	<path class="st2" d="M450.1,73.7c-1.5,3.8-12.8,12-12.8,12s-2.4-13.8-0.9-17.5c0.7-1.8,2.2-3.3,4-4c1.8-0.8,3.8-0.8,5.7,0
		c1.8,0.7,3.3,2.2,4,4C450.8,69.9,450.8,71.9,450.1,73.7L450.1,73.7z"/>
	<path class="st2" d="M453,99.3c-3.3,2.3-17.3,3.1-17.3,3.1s5.4-12.9,8.8-15.2c0.8-0.6,1.7-1,2.7-1.3c1-0.2,2-0.3,2.9-0.1
		c1,0.2,1.9,0.5,2.8,1c0.8,0.5,1.6,1.2,2.1,2c0.6,0.8,1,1.7,1.2,2.7c0.2,1,0.2,2,0,2.9c-0.2,1-0.6,1.9-1.1,2.7
		C454.5,98,453.8,98.7,453,99.3L453,99.3z"/>
	<path class="st2" d="M438,134.9c-4.1,0.3-16.5-6-16.5-6s11.2-8.4,15.2-8.7c2-0.2,3.9,0.5,5.4,1.7c1.5,1.3,2.4,3.1,2.6,5
		c0.2,2-0.5,3.9-1.7,5.4C441.8,133.8,440,134.8,438,134.9L438,134.9z"/>
	<path class="st2" d="M420.7,159.4c-4,1-17.3-3.2-17.3-3.2s9.6-10.1,13.6-11.2c1.9-0.5,3.9-0.2,5.6,0.8c1.7,1,2.9,2.6,3.4,4.5
		c0.5,1.9,0.2,3.9-0.8,5.6C424.2,157.6,422.6,158.9,420.7,159.4z"/>
	<path class="st2" d="M421,97.3c1.7,3.7,13.2,11.6,13.2,11.6s2-13.8,0.3-17.6c-0.8-1.7-2.3-3.1-4.1-3.8c-1.8-0.7-3.8-0.6-5.6,0.2
		c-1.8,0.8-3.2,2.2-3.9,4C420.3,93.5,420.3,95.5,421,97.3L421,97.3z"/>
	<path class="st2" d="M401,126.1c2.7,3.1,16.1,7.1,16.1,7.1s-2.3-13.8-5-16.9c-0.6-0.7-1.4-1.4-2.3-1.8c-0.9-0.4-1.8-0.7-2.8-0.8
		c-1-0.1-2,0.1-2.9,0.4c-0.9,0.3-1.8,0.8-2.5,1.5c-0.7,0.6-1.3,1.4-1.8,2.3c-0.4,0.9-0.7,1.8-0.7,2.8c-0.1,1,0.1,2,0.4,2.9
		C399.9,124.6,400.4,125.4,401,126.1z"/>
	<path class="st2" d="M385.5,156.8c2.1,3.5,14.6,9.7,14.6,9.7s0.1-14-2-17.4c-1.1-1.6-2.7-2.7-4.6-3.2c-1.9-0.4-3.8-0.1-5.5,0.9
		c-1.6,1-2.8,2.6-3.3,4.5S384.6,155.2,385.5,156.8L385.5,156.8z"/>
	
		<linearGradient id="SVGID_1_" gradientUnits="userSpaceOnUse" x1="372.0945" y1="355.8175" x2="372.0945" y2="365.0797" gradientTransform="matrix(1 0 0 -1 0 403.8898)">
		<stop  offset="0" style="stop-color:#808080;stop-opacity:0.25"/>
		<stop  offset="0.54" style="stop-color:#808080;stop-opacity:0.12"/>
		<stop  offset="1" style="stop-color:#808080;stop-opacity:0.1"/>
	</linearGradient>
	<path class="st4" d="M370.8,48.1c0.8-3.1,1.8-6.2,2.5-9.3C372.5,41.9,371.5,45,370.8,48.1z"/>
	<path class="st5" d="M257,151.6l-3,1.3c0,0-19.7,76.6-19.7,82.8c0,6.2,41.8,40.6,41.8,40.6l6.5-44
		C282.6,232.3,273.2,131.4,257,151.6z"/>
	<path class="st6" d="M348.6,127.3l-17.5-9.1c-1-4.2-2.7-8.1-5.1-11.7c-2.6-3.7-5.9-7.3-10.2-9.2c-10.7-4.8,45.2-30,45.2-30
		c0.9,3,1.9,6,3.1,8.9c2.9,7.1,7.7,16.3,13.8,18.9C388.5,99.7,348.6,127.3,348.6,127.3z"/>
	<path class="st7" d="M364.2,76.3c-2.4,8.4-7.4,15.9-14.2,21.3c-6.8,5.4-15.2,8.6-24,9c-2.6-3.7-5.9-7.3-10.2-9.2
		c-10.7-4.8,45.2-30,45.2-30C362,70.4,363,73.3,364.2,76.3z"/>
	<path class="st6" d="M365.8,63.5c0,8.2-2.4,16.3-7,23.2c-4.6,6.9-11.1,12.2-18.7,15.4c-7.6,3.2-16,4-24.1,2.4
		c-8.1-1.6-15.5-5.6-21.3-11.4c-5.8-5.8-9.8-13.3-11.4-21.3c-1.6-8.1-0.8-16.5,2.4-24.1c3.2-7.6,8.5-14.1,15.3-18.7s14.9-7,23.2-7
		c5.5,0,10.9,1,16,3.1c5.1,2.1,9.7,5.2,13.5,9c3.9,3.9,6.9,8.5,9,13.5C364.8,52.6,365.8,58.1,365.8,63.5z"/>
	<path class="st8" d="M371.8,121.9l-11.4,26.5l-10,17.6h-32.1L309,142l3.8-25h24.5l15.8-0.9l5.3-1.8l3.4,2L371.8,121.9z"/>
	<path class="st7" d="M367.9,86.6c0,0,7.1,1.5,0.7,6.7c-6.3,5.2-28.2,21.8-28.2,21.8s7.7,6.9,6.1,14.9l25.5-14.2l4.5-22.7
		C376.5,93,377,86.2,367.9,86.6z"/>
	<path class="st7" d="M345.4,115.1l-16.2,2.7c0,0,3.3,12.4,1.7,15.9c-0.1,0.1-0.1,0.2-0.1,0.3l-6.6,17.9l5,14l17.2-23.4l-5.8-8.9
		c0,0,6.2-8.2,9.9-11C353.9,119.7,345.4,115.1,345.4,115.1z"/>
	<path class="st9" d="M345.4,114.4l-16.2,2.7c0,0,3.3,12.4,1.7,15.9c-0.1,0.1-0.1,0.2-0.1,0.3l-6.6,17.9l5,14l17.2-23.4l-5.8-8.9
		c0,0,6.2-8.2,9.9-11C353.9,119,345.4,114.4,345.4,114.4z"/>
	<path class="st8" d="M368.6,85.2c0,0,7.1,1.5,0.7,6.7c-6.4,5.2-28.9,23.1-28.9,23.1s8.4,5.5,6.8,13.5l25.5-14.2l4.5-22.7
		C377.2,91.7,377.7,84.8,368.6,85.2z"/>
	<path class="st7" d="M327.2,108.1c0,0,1.5,2.9,8.4,8.1c0,0-11.4,6-7,14.5l-17.4-4.5l-2.7-8.4L327.2,108.1z"/>
	<path class="st8" d="M326.5,107.4c0,0,1.5,2.9,8.4,8.1c0,0-11.4,6-7,14.5l-17.4-4.5l-2.7-8.4L326.5,107.4z"/>
	<path class="st7" d="M371.8,121.9l-11.4,26.5l-10,17.6h-32.1L309,142l3.8-25h6.8c-0.1,5.8,2,12.7,1.9,15.2
		c-0.2,4.2,6.2,26.7,6.2,26.7s13.5-21.9,18.9-23.9c3.4-1.2,10.5-11.4,15.3-18.8L371.8,121.9z"/>
	<path class="st5" d="M416.6,261.5l-1.2,1.5c0,0,8.4,42,6,51.5c-0.4,1.7-0.6,3.5-0.7,5.2v0.1c-0.4,9.7,2.5,22.3,2.5,22.3
		s2.3,37.1,1,52.3H267.9c-0.9-22.6-1.9-51.8-1-55c1.5-5.3,4.5-24.7,4.5-24.7l0.3-9.2c0,0,0-8.9,0.3-18.8c0.1-4.5,0.3-9.1,0.5-13.3
		c0.3-5.2,0.8-9.6,1.4-11.8c0.4-1.6,0.6-3.3,0.6-5c0-0.2,0-0.3,0-0.5c0-0.5,0.1-1,0.1-1.6c0-0.2,0-0.3,0-0.5c0.1-3.2,0.1-7.1,0-11.1
		c0-0.2,0-0.4,0-0.7c-0.1-3-0.2-6-0.4-8.9c-0.4-9.1-1-16.7-1-16.7L254,152.9l5.2-12.8l14.4-8.8l26.6-16.1c13-10.7,21.5-9.4,24.7-8.2
		c0.3,0.1,0.6,0.2,0.9,0.4c0.1,0.1,0.2,0.1,0.3,0.1c0.1,0,0.2,0.1,0.3,0.2c-0.9,0.4-1.7,1.1-2.3,1.9c-0.7,0.9-1.1,1.9-1.4,3
		c-0.2,0.7-0.3,1.4-0.4,2.1c-0.1,0.7-0.1,1.5-0.1,2.2c0,1.7,0.2,3.3,0.4,5c0,0,0,0.1,0,0.1c0.2,1.2,0.4,2.3,0.6,3.4c0,0,0,0,0,0.1
		c0.2,1.3,0.5,2.4,0.6,3.4c0,0.2,0.1,0.3,0.1,0.5c0.1,0.7,0.2,1.3,0.2,2c0.1,1.6,0.3,3.3,0.7,4.8c0.1,0.7,0.3,1.4,0.4,2.1
		c0.2,1,0.5,2.1,0.7,3.2c0.1,0.6,0.3,1.2,0.5,1.9c0.1,0.3,0.1,0.5,0.2,0.8l0.1,0.4c1.1,4.3,2.2,8.5,3,11.1c0.4,1.5,0.7,2.4,0.7,2.4
		S338,146,344,139c0.1-0.1,0.2-0.2,0.3-0.3c0.6-0.7,1.2-1.3,1.8-1.9c1.2-1.2,2.3-2.1,3.2-2.4c0.2-0.1,0.4-0.2,0.5-0.3
		c2.5-1.4,6.5-6.5,10.2-11.9c0.4-0.5,0.7-1.1,1.1-1.6c0.8-1.2,1.6-2.4,2.4-3.6c0.6-0.9,1.1-1.7,1.7-2.6c2.5-3.9,4.3-6.8,4.3-6.8
		l3.5-0.2l0.6,0h0.4l15.9-0.7c0,0,0.7,0.1,1.8,0.3c0.1,0,0.1,0,0.2,0c5.6,1.1,21.3,4.7,22.2,9.6c1.2,6,26.4,14,26.4,14
		c0.3,4,6.5,6.7,6.5,6.7s9.4,24.7,6.9,34.4c-2.5,9.6,6.4,33.3,6.7,33.9l-1.7,2.2L416.6,261.5z"/>
	<path class="st7" d="M367.9,84.8c0,0,15.4-4.4,19,4.6c3.5,9,11.4,45.5,11.4,45.5s-20.4,3.8-25.7,0c-3.1-2.3-7-3.3-10.9-2.8
		l-11.5,7.9l-3.4-1c0,0,18.4-27.4,22.5-36.8C373.2,92.9,374.5,88.7,367.9,84.8z"/>
	<path class="st5" d="M367.2,82.8c0,0,15.5-4.4,19,4.6c3.5,9,11.4,45.5,11.4,45.5s-20.4,3.8-25.7,0c-3.1-2.3-7-3.3-10.9-2.8
		l-11.5,7.9l-3.4-1c0,0,18.4-27.4,22.5-36.8C372.5,90.9,373.8,86.7,367.2,82.8z"/>
	<path class="st7" d="M263.5,228.2c0,0,11.5,2.8,13.7,9.4c2.2,6.5-8.5,6.7-8.5,6.7S262.2,232.7,263.5,228.2z"/>
	<path class="st7" d="M306.5,276.4c0,0-28.2,57.8-21.7,63.4S306.5,276.4,306.5,276.4z"/>
	<path class="st7" d="M345.4,233.7c0,0,22.6,56.2,18,64.9c-4.5,8.7,9.7,0,9.7,0L345.4,233.7z"/>
	<path class="st6" d="M376.8,289.2c0,0-76.2,3.7-54,27.4c22.2,23.7,67.8,1,67.8,1L376.8,289.2z"/>
	<path class="st7" d="M365.8,63.5c0,5.5-1.1,10.9-3.2,15.9c-0.7,0.1-1.4,0.1-2.1,0.2c-1-2.2-0.5-4.8-0.4-7.2c0-2.4-0.9-5.3-3.2-6
		c-4.7-1.3-7.9,7.4-12.5,5.8c-3.5-1.2-2.6-6.6-4.6-9.6c-1.6-2.4-4.8-3.1-7.3-4.7c-5.3-3.3-5.2-8.5-7.6-13.4
		c-2.6-5.2-8.1-3.7-12.8-0.6c-3.6,2.3-6.7,5.4-10.6,7.3c-3.3,1.6-7.1,2.2-10.8,2.3c-2.3,0.1-4.6-0.2-6.8-0.7
		c2.6-9.8,8.7-18.3,17.1-23.9c8.4-5.6,18.6-8,28.6-6.7c10,1.3,19.2,6.2,25.9,13.8C362.1,43.7,365.8,53.4,365.8,63.5L365.8,63.5z"/>
	<path class="st8" d="M312,42.6c-3.6,2.3-6.7,5.4-10.6,7.3c-3.3,1.6-7.1,2.2-10.8,2.3c-4.5,0.1-9.4-0.7-12.5-4
		c-2.8-3-3.5-7.7-2.3-11.6c1.2-4,4.1-7.3,7.5-9.6c3.4-2.4,7.3-4,9.6-7.4c1.2-1.8,1.8-3.9,2.8-5.9c3.2-6.1,10.3-9.5,17.1-9.9
		c6.9-0.4,13.7,1.6,20.2,3.9s13.1,4.7,20,5.1c3.1,0.2,6.3,0,9.1,1.2c3.8,1.6,6.3,5.3,8.1,9.1c1.9,4.3,3.1,8.9,2.9,13.6
		c-0.4,10-7,19.7-4.1,29.3c0.8,2.5,2.2,5.2,1.4,7.7c-1.1,3.7-5.9,4.6-9.8,4.7c-1-2.2-0.5-4.8-0.4-7.2c0-2.4-0.9-5.3-3.2-6
		c-4.7-1.3-7.9,7.4-12.5,5.8c-3.5-1.2-2.6-6.6-4.6-9.6c-1.6-2.4-4.8-3.1-7.3-4.7c-5.3-3.3-5.2-8.5-7.6-13.4
		C322.3,38,316.8,39.6,312,42.6z"/>
	<path class="st5" d="M238.1,234.4l-3.8,1.3c0,0,1.5,22.7-3.5,29.3c-5,6.5,16.5,22.7,16.5,22.7s29.6-0.2,30.4-2.5
		c0.8-2.4-1.5-42.1-1.5-42.1s-15.9-6.2-14.5-16.1c0,0-4.8,23.2-12,22.2C242.5,248.3,234.3,242.3,238.1,234.4z"/>
	<path class="st7" d="M251,256.3c5.6,0,10.1-4.2,10.1-9.3c0-5.1-4.5-9.3-10.1-9.3c-5.6,0-10.1,4.2-10.1,9.3
		C240.8,252.1,245.4,256.3,251,256.3z"/>
	<path class="st6" d="M262,235.1c0,0-2-61.5-19.6-47.8s-17.7,30.1-14.4,34.9c3.3,4.8,14,29.1,14,29.1c1.7,1,3.6,1.5,5.5,1.6
		c1.9,0.1,3.9-0.3,5.6-1s3.3-2,4.5-3.5c1.2-1.5,2.1-3.3,2.5-5.2L262,235.1z"/>
	<path class="st7" d="M371.4,79.2c-0.1-0.3-0.2-0.5-0.5-0.7c-0.9-0.8-2.7-1.1-5.5-0.8l0.1,1.3c3.7-0.3,4.5,0.4,4.6,0.5v0.1l0.1,0.2
		c0.5,0.6,0.8,1.3,1,2.1c0.2,0.8,0.2,1.6,0,2.3c-0.8,4.1-5.9,7.4-5.9,7.4l-0.1,0.1l-0.1,0.1c-2.2,3.2-14.5,12.3-17.7,14.7l-0.3-0.3
		c-1.4,1.2-14.1,12.3-14.8,16.6c-0.4,2.7-3.4,3.7-4.5,4c-1.1-0.9-4.9-3.8-6.8-7.2c-1.8-3.1,5.5-9.2,6.1-11.6l-1-1
		c-0.1,0.4-9.5,9.2-6.9,13.7c2.1,3.6,5.9,6.7,7.3,7.7c-0.4,3.9-3.1,26.7-7.2,32.1c-5.1,6.7-9.4,40.6-8.9,52.5
		c0.4,10.5-2.3,30.4-11.5,38.9c-1.6,1.5-3.5,2.7-5.6,3.4c-2.1,0.7-4.3,0.9-6.5,0.6h-0.1h-0.1c-0.1,0-13.4,1.4-24.6-8.1
		c-9.1-7.7-14.3-20.3-15.4-37.3h-0.2l-0.1-5c2.5-0.4,4.7-1.7,6.2-3.7c1.5-2,2.2-4.5,1.9-7c-0.3-2.5-1.5-4.8-3.5-6.4
		c-1.9-1.6-4.4-2.4-6.9-2.2c-2.5,0.2-4.8,1.4-6.5,3.2c-1.7,1.9-2.5,4.3-2.4,6.8c0.1,2.5,1.2,4.9,3,6.6c1.8,1.7,4.2,2.7,6.7,2.7h0.1
		l0.1,4.9l-0.4,0c1.1,17.6,6.5,30.7,16.1,38.7c7.3,6,16.6,9.1,26,8.5c0.7,0.1,1.3,0.1,2,0.1c4.3,0,8.5-1.7,11.6-4.7
		c9.7-9,12.6-29.6,12.1-40.5c-0.5-12.5,4-45.2,8.5-51.2c4.4-5.8,7.1-28.6,7.6-33c1.6-0.4,5.2-1.9,5.8-5.5
		c0.4-2.7,8.9-10.9,14.1-15.4l-0.2-0.2c2.8-2,11.5-8.5,15.8-12.6c1.3-1.3,2.7-2.6,4.1-3.8c1.7-1.5,3.8-3.8,4.4-6.6
		c0.2-0.9,0.2-1.9,0-2.8C372.4,80.9,372,80,371.4,79.2z"/>
	<path class="st10" d="M326.4,128.1c-0.2-0.1-5.2-3.7-7.7-8.1c-2.6-4.5,6.8-13.3,6.9-13.7l1,1c-0.6,2.4-8,8.5-6.1,11.6
		c2.3,3.9,7.1,7.4,7.2,7.4L326.4,128.1z"/>
	<path class="st5" d="M346.8,107.6l-0.8-1.1c0.2-0.1,16-11.6,18.5-15.3l0.1-0.1l0.1-0.1c0.1,0,5.1-3.3,5.9-7.4
		c0.2-0.8,0.1-1.6,0-2.3c-0.2-0.8-0.5-1.5-1-2.1l-0.1-0.2v-0.1c-0.1-0.1-0.8-0.9-4.6-0.5l-0.1-1.3c2.8-0.2,4.7,0,5.5,0.8
		c0.2,0.2,0.4,0.4,0.5,0.7c0.5,0.8,0.9,1.6,1.1,2.6c0.2,0.9,0.2,1.9,0,2.8c-0.6,2.8-2.7,5.1-4.4,6.6c-1.4,1.2-2.7,2.5-4.1,3.8
		C358.4,99.2,347.4,107.2,346.8,107.6z"/>
	<path class="st5" d="M245.7,203.9l-1.3,0l0.1,8.1l1.3,0L245.7,203.9z"/>
	<path class="st2" d="M244.2,205.1c5.4,0,9.7-4.4,9.7-9.8c0-5.4-4.4-9.8-9.7-9.8s-9.7,4.4-9.7,9.8
		C234.5,200.7,238.9,205.1,244.2,205.1z"/>
	<path class="st5" d="M244.2,203.4c4.5,0,8.1-3.6,8.1-8.1c0-4.5-3.6-8.1-8.1-8.1s-8.1,3.6-8.1,8.1
		C236.2,199.8,239.8,203.4,244.2,203.4z"/>
	<path class="st10" d="M288.1,257.4c-0.7,0-1.3,0-2-0.1c-9.4,0.6-18.7-2.5-26-8.5c-9.6-8.1-15-21.1-16.1-38.7l2-0.1
		c1.1,17.1,6.3,29.6,15.4,37.3c11.2,9.4,24.5,8.1,24.6,8.1h0.1h0.1c2.2,0.3,4.4,0.1,6.5-0.6c2.1-0.7,4-1.9,5.6-3.4
		c9.2-8.5,11.9-28.4,11.5-38.9c-0.5-11.8,3.8-45.8,8.9-52.5c4.5-5.9,7.2-32.4,7.3-32.7l0.1-0.8l0.7-0.1c0,0,4.4-0.8,4.9-4.1
		c0.7-4.2,13.3-15.3,14.8-16.6l1.3,1.5c-5.2,4.5-13.7,12.7-14.1,15.4c-0.6,3.7-4.2,5.1-5.8,5.5c-0.5,4.4-3.2,27.2-7.6,33
		c-4.5,6-9,38.6-8.5,51.2c0.4,10.9-2.5,31.5-12.1,40.5C296.6,255.8,292.5,257.4,288.1,257.4z"/>
	<g class="st11">
		<path class="st7" d="M370.1,51.6c0.8-3.1,1.8-6.1,2.5-9.2C371.8,45.5,370.8,48.6,370.1,51.6z"/>
		<path class="st7" d="M361.7,75.6c-1-2.2-0.5-4.8-0.4-7.2c0-2.4-0.9-5.3-3.2-6c-4.7-1.3-7.9,7.4-12.5,5.8c-3.5-1.2-2.6-6.6-4.6-9.6
			c-1.6-2.4-4.8-3.1-7.3-4.7c-5.3-3.3-5.2-8.5-7.6-13.4c-2.6-5.2-8.1-3.7-12.8-0.6c-3.6,2.3-6.7,5.4-10.6,7.3
			c-3.3,1.6-7.1,2.2-10.8,2.3c-4.5,0.1-9.4-0.7-12.5-4c-2.4-2.5-3.2-6.2-2.8-9.7c-0.1,0.2-0.2,0.5-0.2,0.7c-1.2,4-0.5,8.6,2.3,11.6
			c3.1,3.3,8,4.1,12.5,4c3.7-0.1,7.5-0.7,10.8-2.3c3.9-1.9,7-5,10.6-7.3c4.8-3.1,10.2-4.6,12.8,0.6c2.5,4.9,2.3,10.2,7.6,13.4
			c2.5,1.5,5.7,2.2,7.3,4.7c2,3.1,1.1,8.4,4.6,9.6c4.6,1.6,7.8-7.1,12.5-5.8c2.3,0.7,3.2,3.5,3.2,6c0,2.4-0.5,5,0.4,7.2
			c3.9-0.2,8.7-1,9.8-4.7c0.2-0.5,0.2-1.1,0.2-1.6C369.4,74.7,365.2,75.5,361.7,75.6z"/>
	</g>
	<path class="st7" d="M452.7,199.8l5.8,6.2c0,0,4.7,34.1,7,37.3c2.3,3.2,7.9,15.9,2.7,25.4c0,0-1.7,5.2-0.7,7.4c1,2.2-7.5,13-7.5,13
		s-11.2,10-13.5,11.5c-2.3,1.5-14.7,13.5-18.9,13.7c-4.2,0.2-5.5,5.4-5.5,5.4l-23.6,0.8c0,0-13-0.7-15.8,1.2c0,0,1.5-19.9-13-32.9
		l18.5-6.7c0,0,7-3,9.2-6.2c1.4-1.9,3.3-3.4,5.5-4.2c0,0,5.2-3.7,5.3-5.7c0.2-2,6.3-4.5,6.3-4.5l-3.5-29.8l1.8-49.5
		c0,0,5.8-41.5,18.2-39.1C443.5,145.5,452.7,199.8,452.7,199.8z"/>
	<path class="st5" d="M454.7,199.8l5.8,6.2c0,0,4.7,34.1,7,37.3c2.3,3.2,7.9,15.9,2.7,25.4c0,0-1.7,5.2-0.7,7.4c1,2.2-7.5,13-7.5,13
		s-11.2,10-13.5,11.5c-2.3,1.5-14.7,13.5-18.9,13.7c-4.2,0.2-5.5,5.4-5.5,5.4l-23.6,0.8c0,0-13-0.7-15.8,1.2c0,0,1.5-19.9-13-32.9
		l18.5-6.7c0,0,7-3,9.2-6.2c1.4-1.9,3.3-3.4,5.5-4.2c0,0,5.2-3.7,5.3-5.7c0.2-2,6.3-4.5,6.3-4.5l-3.5-29.8l1.8-49.5
		c0,0,5.8-41.5,18.2-39.1C445.5,145.5,454.7,199.8,454.7,199.8z"/>
	<path class="st7" d="M433,249.8c0,0,17.2-4.5,21.7,1C459.2,256.3,433,249.8,433,249.8z"/>
	<path class="st7" d="M429,257.4c5.8,4.1,23.9,4.3,23.9,4.3L429,257.4z"/>
	<path class="st7" d="M437.8,277.9c0.5,0.2,12.4,12.9,17.4,9S437.8,277.9,437.8,277.9z"/>
	<path class="st7" d="M277.5,171.2c0,0,3.5,24.1,1.8,33.9c-1.7,9.8,4.6,22,4.6,22L277.5,171.2z"/>
	<path class="st6" d="M200.2,181c-4,3.2-7,10.6-9.1,18.9c-3.7,14.3-4.9,31-4.9,31s-32.1-7.4-29.7-10.7c1.5-2.1-0.5-17.9-2.2-29.4
		c-1-6.8-1.9-12-1.9-12S211.2,172.3,200.2,181z"/>
	<path class="st7" d="M200.2,180.3c-4,3.2-7,10.6-9.1,18.9c-6.4,1.9-13.2,2.1-19.7,0.5c-6.5-1.6-12.4-4.9-17.2-9.7
		c-1-6.8-1.9-12.1-1.9-12.1S211.2,171.6,200.2,180.3z"/>
	<path class="st6" d="M217.4,162.3c0,8.8-3.1,17.2-8.7,23.9c-5.6,6.7-13.5,11.2-22.1,12.7c-8.6,1.5-17.5-0.1-25.1-4.6
		c-7.6-4.4-13.3-11.4-16.2-19.7c-2.9-8.3-2.8-17.3,0.3-25.5c3.1-8.2,9-15,16.7-19.3c7.7-4.3,16.6-5.7,25.2-4
		c8.6,1.7,16.3,6.4,21.8,13.2C214.5,145.7,217.4,153.9,217.4,162.3z"/>
	<path class="st7" d="M246.7,394.4h-10.6l-0.9-18.7l-0.9-19.3c0,0,2.4-0.4,6.2-0.9l1.5-0.2h0.1c0.8,3.9,1.7,8,2.5,12
		c1.3,7.1,2,14.4,2.1,21.7c0,0.5,0,1,0,1.5C246.7,391.8,246.7,393.1,246.7,394.4z"/>
	<path class="st12" d="M244.6,394.4H112c0.6-1.3,1-2.1,1-2.1s10.6-46.5,16-66.1c0,0,0,0,0,0c0.7-2.7,1.5-5.3,2.4-7.9
		c0.1-0.2,0.1-0.3,0.2-0.5c2.7-4.3,6-9,1.3-15.7s-3-36.1-3-36.1s5.7-25.1,11.7-38.5c0.9-2.1,2.2-4,3.8-5.5c0.5-0.5,1.1-1,1.7-1.4
		c0.4-0.3,0.9-0.6,1.4-0.9l0.1-0.1c2.5-1.4,5.3-2.3,8.2-2.6c2.1-0.2,4.1-0.2,6.2,0.2c9.8,1.4,17.6,3.8,23.8,6.6
		c16.8,7.4,21.9,17.3,22,17.5l0,0.1c0.7,1.6,10.5,24.6,14.1,35.4c0.9,2.8,1.4,4.8,1.2,5.3c-1,2.7,7.7,36.1,7.7,36.1s4,16.1,8.1,35
		c0.2,0.8,0.3,1.6,0.5,2.4c0.7,3.4,1.4,6.9,2.1,10.4c1.3,7.2,2,14.5,2.1,21.8C244.7,390,244.7,392.2,244.6,394.4z"/>
	<path class="st7" d="M156.1,205.5c0,0-9.1-3.5-9,1.8c0.1,5.4,2.2,7.9,1.6,8.7c-0.7,0.8,0.3,5.5,0.3,5.5s12.4,0,18,2.6
		c5.7,2.6,26.6,7.7,29.3,9.3c2.7,1.6,12.6,8.6,12.6,8.6l0.9-13.3c0,0-10.2-8.5-27.1-12.8C165.9,211.4,156.1,205.5,156.1,205.5z"/>
	<path class="st12" d="M156.1,204.8c0,0-9.1-3.5-9,1.8c0.1,5.4,2.2,7.9,1.6,8.7c-0.7,0.8,0.3,5.5,0.3,5.5s12.4,0,18,2.6
		c5.7,2.6,26.6,7.7,29.3,9.2c2.7,1.6,12.6,8.6,12.6,8.6l0.9-13.2c0,0-10.2-8.5-27.1-12.8C165.9,210.8,156.1,204.8,156.1,204.8z"/>
	<path class="st7" d="M183.7,236.7c0,0,17.5,18.9,16.6,24.2C199.4,266.2,183.7,236.7,183.7,236.7z"/>
	<path class="st7" d="M155.3,305.2c0,0-12.8,11.8-16.6,12.5c-3.8,0.7,2.9,2.9,7.2,1.1c4.3-1.8,13.6-6.5,13.6-6.5L155.3,305.2z"/>
	<path class="st6" d="M249.8,394.4h-29.9c-4.2-3.6-8.1-7-10.7-9c-4-3.2-6.9-8-8.8-11.8c-0.4-0.9-0.8-1.7-1.1-2.4
		c-0.6-1.3-1-2.6-1.4-3.9l22.1-13.2c1.2,1,2.4,2.2,3.4,3.4l0.3,0.3c1.2,1.5,2.3,3.1,2.4,4.4c0.1,1.6,4.5,7.7,8.9,13.5
		c4.5,5.9,9.2,11.6,9.5,12c0,0,0.8,1,2,2.6C247.5,391.5,248.6,392.9,249.8,394.4z"/>
	<path class="st7" d="M209.2,139.1c-1.1,2.4-2,4.9-2.2,7.6c-0.4,7.7,0.2,24.9-8.3,28.8c-4.2,1.9-8.7-2.3-13.4-2.4
		c-3.3-0.1-6.4,2-8.4,4.7c-2,2.6-3.3,5.8-4.8,8.8c-1.3,2.7-2.9,5.3-4.6,7.8c-0.5,0.8-1.1,1.5-1.7,2.2c-5.2-2.2-9.8-5.6-13.5-9.8
		c-3.7-4.3-6.4-9.3-7.9-14.8c-1.5-5.5-1.7-11.2-0.6-16.7c1.1-5.5,3.4-10.8,6.8-15.3c3.4-4.5,7.8-8.2,12.8-10.7
		c5-2.6,10.6-3.9,16.2-4c5.6-0.1,11.2,1.1,16.3,3.5C201.2,131.2,205.7,134.7,209.2,139.1L209.2,139.1z"/>
	<path class="st8" d="M206.4,145.3c-0.4,7.7,0.2,24.9-8.3,28.8c-4.2,1.9-8.7-2.3-13.4-2.4c-3.3-0.1-6.4,2-8.4,4.7
		c-2,2.6-3.3,5.8-4.8,8.8c-1.3,2.7-2.9,5.3-4.6,7.8c-1,1.5-2.2,2.9-3.8,3.8c-2.8,1.5-6.1,0.6-9.1-0.3c-3.9-1.2-7.7-2.6-11.4-4.1
		c0.1-0.6,0.1-1.1,0.1-1.7c-0.1,0.2-0.2,0.4-0.4,0.6l-0.2,0.4c-0.4,0.8-0.8,1.5-1.2,2.3c-0.1,0.3-0.3,0.6-0.4,0.9
		c-0.5,1.1-0.8,2.4-0.9,3.6c-0.3,3.4,1.4,6.6,2.9,9.6c5.7,11.7,9.2,25.4,4.9,37.6c-1.8,5.3-5,10.1-7.4,15.2
		c-4.1,9.1-5.3,19.3-3.4,29.1c1.2,6.1,3.5,12.2,2.9,18.3c-1,10.7-10.2,18.6-19.4,24c-5,2.9-11.1,5.5-16.3,3.2
		c3.4-3.9,4.2-9.4,5-14.5c2-14,4-28,6-42c0.8-5.6,1.6-11.1,2.4-16.7c1.5-10.5,3-21.1,2.1-31.6c-0.7-7.8-2.6-16,0.8-23
		c1.8-3.7,4.9-6.8,5.9-10.8c0.8-3.3,0.1-6.7,0.6-10c0.3-1.5,0.8-3,1.5-4.4c0.9-1.9,2-3.6,3.4-5.1c-1.3-0.4-2.6-0.9-3.4-2.1
		c2.2-1.4,2.5-4.6,1.5-7c-1-2.4-2.9-4.2-4.7-6.1c-1.8-1.9-3.5-4.1-3.7-6.7c-0.4-4.9,4.5-8.7,5.3-13.5c0.9-4.9-2.6-9.7-2.3-14.7
		c0.3-6,5.8-10.4,11.3-12.9c8.2-3.8,17.3-5.4,26.3-4.5c7.3,0.7,14.4,3,21.8,3.8c4.4,0.5,8.9,0.6,13.3,1.3c4.4,0.8,8.8,2.4,11.9,5.6
		C216.6,129.4,206.9,136.3,206.4,145.3z"/>
	<path class="st7" d="M199.6,373.6c-2.6-1.1-7.2-0.4-15.3-2.9s-9.6-13.5-9.6-13.5v0c-0.1-0.3-0.8-1.9-5.9-7.6
		c-5.6-6.4-17.6-38.4-17.6-38.4s-10.7-11.5-10.3-15.7c0.3-4.2-1.9-15.5-1.7-28.1c0.2-12.6,24.1-21,24.1-21
		c45.9-8.1,35.1,44.8,33.9,48.8c-1.2,4,5.1,14.8,5.1,14.8c-0.9,4.7,3.7,12,3.7,12s1.1,6.5,1.3,8.9c0,0.1,0,0.2,0.1,0.3
		c0.7,2.3,6.7,4.4,9.2,5.7c2.6,1.3,10.8,13,10.8,13C229.1,358.5,202.2,374.7,199.6,373.6z"/>
	<path class="st12" d="M200.9,371.6c-2.6-1.1-7.2-0.4-15.3-2.9c-8-2.4-9.6-13.5-9.6-13.5v0c-0.1-0.3-0.8-1.9-5.9-7.6
		c-5.6-6.4-17.6-38.5-17.6-38.5s-10.7-11.5-10.4-15.7s-1.9-15.5-1.7-28.1c0.2-12.6,24-20.9,24-20.9c45.9-8.1,35.1,44.8,33.9,48.8
		c-1.2,4,5.1,14.8,5.1,14.8c-0.9,4.7,3.7,12,3.7,12s1.1,6.5,1.3,8.9c0,0.1,0,0.2,0.1,0.3c0.7,2.3,6.7,4.4,9.2,5.7
		c2.6,1.3,10.8,13,10.8,13C230.5,356.5,203.5,372.7,200.9,371.6z"/>
	<path class="st7" d="M165.5,271.9c0,0,20,21.2,25.3,21.2C196,293.1,165.5,271.9,165.5,271.9z"/>
	<path class="st13" d="M200.9,371.6c-2.6-1.1-7.2-0.4-15.3-2.9c-8-2.4-9.6-13.5-9.6-13.5v0c5.3-3.5,18.8-13.5,24.1-17.1
		c3.7-2.6,6.8-6.3,8.6-8.8c0.7,2.3,6.7,4.4,9.2,5.7c2.6,1.3,10.8,13,10.8,13C230.5,356.5,203.5,372.7,200.9,371.6z"/>
	<g class="st11">
		<path class="st7" d="M127.9,175.5c0,0,0.1,0.1,0.1,0.1c0.2-0.2,0.3-0.4,0.5-0.6C128.2,175.2,128.1,175.3,127.9,175.5z"/>
		<path class="st7" d="M139.5,198.6c0.2-2.8,1.7-5.3,3.1-7.7c-0.9-0.4-1.8-0.7-2.7-1.1c0.1-0.6,0.1-1.1,0.1-1.7
			c-1.4,2.5-3,5-3.2,7.8c-0.3,3.4,1.4,6.6,2.9,9.6c5.7,11.7,9.2,25.4,4.9,37.6c-1.8,5.3-5,10.1-7.4,15.2c-4.1,9.1-5.3,19.3-3.4,29.1
			c1.2,6.1,3.5,12.2,2.9,18.3c-1,10.7-10.2,18.6-19.4,24c-3.8,2.2-8.2,4.3-12.4,4.1c-0.4,0.6-0.8,1.2-1.3,1.8
			c5.3,2.3,11.4-0.3,16.3-3.2c9.2-5.4,18.4-13.4,19.4-24c0.6-6.2-1.8-12.2-2.9-18.3c-1.8-9.8-0.6-20,3.4-29.1
			c2.3-5.1,5.5-9.9,7.4-15.2c4.3-12.3,0.8-26-4.9-37.6C140.9,205.1,139.3,201.9,139.5,198.6z"/>
		<path class="st7" d="M208.5,120.9c-0.5-0.5-1-1-1.6-1.4c6.1,7.9-2.7,14.7-3.1,23.2c-0.4,7.7,0.3,25-8.3,28.8
			c-4.2,1.9-8.7-2.3-13.4-2.4c-3.3-0.1-6.4,2.1-8.4,4.7c-2,2.6-3.3,5.8-4.8,8.8c-1.3,2.7-2.9,5.3-4.6,7.8c-1,1.5-2.2,2.9-3.8,3.8
			c-2.8,1.4-6.1,0.6-9.1-0.3c-2.9-0.9-5.8-1.9-8.6-3c0,0.5,0,1-0.1,1.6c3.8,1.5,7.6,2.9,11.4,4.1c3,0.9,6.4,1.7,9.1,0.3
			c1.6-0.8,2.8-2.3,3.8-3.8c1.7-2.5,3.3-5.1,4.6-7.8c1.5-3,2.7-6.1,4.8-8.8c2-2.6,5.1-4.8,8.4-4.7c4.6,0.1,9.2,4.3,13.4,2.4
			c8.5-3.9,7.9-21.1,8.3-28.8C206.9,136.4,216.6,129.4,208.5,120.9z"/>
	</g>
	<path class="st7" d="M142.1,191.7c-0.4,0.8-0.8,1.5-1.2,2.3c-0.1,0.3-0.3,0.6-0.4,0.9c-2.6-2.7-9.1-9-12.7-10.9
		c0.9-1.9,2-3.6,3.4-5.2C131.2,178.8,139.7,183.3,142.1,191.7z"/>
	<path class="st12" d="M142.4,191.3c-2-9-11.2-13.8-11.2-13.8c-1.4,1.5-2.5,3.3-3.4,5.1c3.8,2.1,10.8,9,13.1,11.4L142.4,191.3z"/>
</g>
</svg>
